<?xml version="1.0" standalone="no"?>
<!DOCTYPE svg PUBLIC "-//W3C//DTD SVG 20010904//EN"
 "http://www.w3.org/TR/2001/REC-SVG-20010904/DTD/svg10.dtd">
<svg version="1.0" xmlns="http://www.w3.org/2000/svg"
 width="700.000000pt" height="700.000000pt" viewBox="0 0 700.000000 700.000000"
 preserveAspectRatio="xMidYMid meet">
<metadata>
Created by potrace 1.14, written by Peter Selinger 2001-2017
</metadata>
<g transform="translate(0.000000,700.000000) scale(0.100000,-0.100000)"
fill="#000000" stroke="none">
<path d="M3280 6994 c-19 -2 -84 -9 -145 -14 -639 -62 -1264 -315 -1795 -726
-148 -114 -480 -446 -594 -594 -411 -530 -654 -1132 -728 -1795 -17 -155 -17
-575 0 -730 75 -673 332 -1300 748 -1820 114 -143 339 -372 484 -494 537 -451
1163 -717 1885 -803 142 -17 586 -17 730 0 682 79 1268 318 1802 734 138 107
389 351 512 498 451 538 717 1162 803 1885 16 139 16 595 0 730 -77 629 -275
1158 -620 1649 -234 333 -577 668 -917 896 -460 308 -968 495 -1535 566 -117
15 -552 27 -630 18z m655 -683 c1145 -185 2057 -1024 2329 -2143 59 -241 70
-348 70 -668 0 -257 -3 -312 -22 -428 -102 -619 -370 -1148 -801 -1581 -427
-428 -973 -705 -1585 -803 -124 -20 -176 -23 -431 -23 -320 1 -429 13 -678 75
-816 204 -1498 754 -1867 1505 -190 387 -276 739 -287 1172 -13 501 73 902
287 1338 408 832 1211 1421 2120 1555 194 28 190 28 475 25 205 -3 287 -8 390
-24z"/>
<path d="M3315 5239 c-341 -36 -672 -177 -945 -404 -293 -244 -506 -603 -586
-989 -31 -150 -42 -395 -25 -536 87 -704 547 -1266 1211 -1478 201 -64 372
-87 595 -79 399 15 751 151 1062 410 51 43 111 100 133 128 130 164 71 409
-119 498 -47 22 -70 26 -141 26 -104 -1 -155 -22 -244 -105 -191 -177 -426
-283 -666 -299 -340 -22 -617 78 -850 309 -141 139 -224 270 -279 439 -70 214
-69 478 3 687 74 219 232 429 414 553 94 64 235 128 347 158 91 25 116 27 275
27 157 0 185 -3 273 -27 181 -48 332 -133 485 -270 88 -79 153 -107 247 -107
262 0 414 290 268 511 -37 56 -178 177 -308 264 -334 224 -747 326 -1150 284z"/>
</g>
</svg>
